<svg xmlns="http://www.w3.org/2000/svg" viewBox="0 0 100 100">
  <!-- Cuerpo blanco (Matilda) -->
  <ellipse cx="50" cy="60" rx="30" ry="28" fill="#F5F0E8"/>
  <!-- Cabeza -->
  <circle cx="50" cy="34" r="22" fill="#F5F0E8"/>
  <!-- Plumas cima -->
  <ellipse cx="48" cy="13" rx="3" ry="10" fill="#DDD8CC" transform="rotate(-10,48,13)"/>
  <ellipse cx="52" cy="11" rx="3" ry="10" fill="#DDD8CC" transform="rotate(10,52,11)"/>
  <!-- Cejas enojadas -->
  <rect x="30" y="22" width="14" height="4" rx="2" fill="#8B7355" transform="rotate(-12,37,24)"/>
  <rect x="56" y="22" width="14" height="4" rx="2" fill="#8B7355" transform="rotate(12,63,24)"/>
  <!-- Ojos negros grandes -->
  <ellipse cx="40" cy="30" rx="8" ry="9" fill="#fff"/>
  <ellipse cx="60" cy="30" rx="8" ry="9" fill="#fff"/>
  <circle cx="42" cy="32" r="4" fill="#1a1a1a"/>
  <circle cx="62" cy="32" r="4" fill="#1a1a1a"/>
  <circle cx="44" cy="30" r="1.5" fill="#fff"/>
  <circle cx="64" cy="30" r="1.5" fill="#fff"/>
  <!-- Pico naranja -->
  <polygon points="44,38 56,38 50,46" fill="#F5A623"/>
  <polygon points="44,38 56,38 50,42" fill="#E8901A"/>
  <!-- Cola -->
  <polygon points="20,72 10,88 28,80" fill="#F5F0E8"/>
  <polygon points="20,72 8,82 22,76" fill="#DDD8CC"/>
</svg>
