<svg xmlns="http://www.w3.org/2000/svg" viewBox="0 0 100 100">
  <!-- Cuerpo -->
  <ellipse cx="50" cy="58" rx="36" ry="32" fill="#D42B1E"/>
  <!-- Vientre -->
  <ellipse cx="50" cy="68" rx="20" ry="16" fill="#C8773D"/>
  <!-- Cabeza -->
  <circle cx="50" cy="34" r="24" fill="#D42B1E"/>
  <!-- Plumas de la cima -->
  <polygon points="50,10 45,22 50,18 55,22" fill="#B01A10"/>
  <polygon points="44,12 40,24 45,20 48,25" fill="#B01A10"/>
  <polygon points="56,12 60,24 55,20 52,25" fill="#B01A10"/>
  <!-- Cejas enojadas -->
  <rect x="32" y="22" width="14" height="4" rx="2" fill="#6B1008" transform="rotate(-15,39,24)"/>
  <rect x="54" y="22" width="14" height="4" rx="2" fill="#6B1008" transform="rotate(15,61,24)"/>
  <!-- Ojos blancos -->
  <ellipse cx="40" cy="30" rx="8" ry="9" fill="#fff"/>
  <ellipse cx="60" cy="30" rx="8" ry="9" fill="#fff"/>
  <!-- Pupilas -->
  <circle cx="42" cy="32" r="4" fill="#1a1a1a"/>
  <circle cx="62" cy="32" r="4" fill="#1a1a1a"/>
  <!-- Brillo ojos -->
  <circle cx="44" cy="30" r="1.5" fill="#fff"/>
  <circle cx="64" cy="30" r="1.5" fill="#fff"/>
  <!-- Pico -->
  <polygon points="44,38 56,38 50,46" fill="#F5A623"/>
  <polygon points="44,38 56,38 50,42" fill="#E8901A"/>
  <!-- Bigote -->
  <line x1="38" y1="40" x2="28" y2="44" stroke="#6B1008" stroke-width="2"/>
  <line x1="62" y1="40" x2="72" y2="44" stroke="#6B1008" stroke-width="2"/>
</svg>
